# xmcd
#
# Track frame offsets: 
#        150
#        15219
#        31496
#        47698
#        62439
#
# Disc length: 1059 seconds
#
# Revision: 1
# Processed by: cddbd v1.5.2PL0 Copyright (c) Steve Scherf et al.
# Submitted via: ExactAudioCopyFreeDBPlugin 1.0
#
DISCID=2f042105
DTITLE=No Angels - Feelgood Lies
DYEAR=2003
DGENRE=Pop
TTITLE0=Feelgood Lies (Radio Version)
TTITLE1=Feelgood Lies (Video Version)
TTITLE2=Feelgood Lies (Jiggy Joint Remix)
TTITLE3=Feelgood Lies (Instrumental)
TTITLE4=In My Head
EXTD=
EXTT0=
EXTT1=
EXTT2=
EXTT3=
EXTT4=
PLAYORDER=
